<mxfile host="app.diagrams.net" agent="Mozilla/5.0 (Windows NT 10.0; Win64; x64) AppleWebKit/537.36 (KHTML, like Gecko) Chrome/138.0.0.0 YaBrowser/25.8.0.0 Safari/537.36" version="28.0.6">
  <diagram name="Страница — 1" id="D4KMYvmR9RUjBbCeqBAE">
    <mxGraphModel dx="1678" dy="936" grid="1" gridSize="10" guides="1" tooltips="1" connect="1" arrows="1" fold="1" page="1" pageScale="1" pageWidth="827" pageHeight="1169" math="0" shadow="0">
      <root>
        <mxCell id="0" />
        <mxCell id="1" parent="0" />
        <mxCell id="0v7TyIDGhViwFiE-gd_m-1" value="Начать тренировку" style="rounded=0;whiteSpace=wrap;html=1;" parent="1" vertex="1">
          <mxGeometry x="38.25" y="60" width="120" height="30" as="geometry" />
        </mxCell>
        <mxCell id="0v7TyIDGhViwFiE-gd_m-2" value="Настройки" style="rounded=0;whiteSpace=wrap;html=1;" parent="1" vertex="1">
          <mxGeometry x="38.25" y="100" width="120" height="30" as="geometry" />
        </mxCell>
        <mxCell id="0v7TyIDGhViwFiE-gd_m-3" value="Админка" style="rounded=0;whiteSpace=wrap;html=1;" parent="1" vertex="1">
          <mxGeometry x="38.25" y="140" width="120" height="30" as="geometry" />
        </mxCell>
        <mxCell id="0v7TyIDGhViwFiE-gd_m-4" value="Назад" style="rounded=0;whiteSpace=wrap;html=1;" parent="1" vertex="1">
          <mxGeometry x="44.25" y="400" width="120" height="30" as="geometry" />
        </mxCell>
        <mxCell id="0v7TyIDGhViwFiE-gd_m-5" value="Последняя тренировка" style="rounded=0;whiteSpace=wrap;html=1;" parent="1" vertex="1">
          <mxGeometry x="41.62" y="260" width="120" height="30" as="geometry" />
        </mxCell>
        <mxCell id="0v7TyIDGhViwFiE-gd_m-6" value="" style="rounded=0;whiteSpace=wrap;html=1;fillColor=none;" parent="1" vertex="1">
          <mxGeometry x="322.37" y="280" width="250" height="157.5" as="geometry" />
        </mxCell>
        <mxCell id="0v7TyIDGhViwFiE-gd_m-7" value="Назад" style="rounded=0;whiteSpace=wrap;html=1;" parent="1" vertex="1">
          <mxGeometry x="334.25" y="400" width="120" height="30" as="geometry" />
        </mxCell>
        <mxCell id="0v7TyIDGhViwFiE-gd_m-8" value="" style="rounded=0;whiteSpace=wrap;html=1;fillColor=none;" parent="1" vertex="1">
          <mxGeometry x="30.25" y="250" width="240" height="187.5" as="geometry" />
        </mxCell>
        <mxCell id="0v7TyIDGhViwFiE-gd_m-9" value="&lt;u&gt;&lt;font style=&quot;color: rgb(59, 38, 255);&quot;&gt;Настройки:&lt;/font&gt;&lt;/u&gt;" style="text;html=1;align=center;verticalAlign=middle;resizable=0;points=[];autosize=1;strokeColor=none;fillColor=none;" parent="1" vertex="1">
          <mxGeometry x="32.25" y="880" width="90" height="30" as="geometry" />
        </mxCell>
        <mxCell id="0v7TyIDGhViwFiE-gd_m-10" value="" style="rounded=0;whiteSpace=wrap;html=1;strokeColor=default;fillColor=none;" parent="1" vertex="1">
          <mxGeometry x="25.75" y="23.75" width="244.25" height="167.5" as="geometry" />
        </mxCell>
        <mxCell id="0v7TyIDGhViwFiE-gd_m-11" value="&lt;u style=&quot;&quot;&gt;&lt;font style=&quot;color: rgb(59, 38, 255);&quot;&gt;Начать тренировку:&lt;/font&gt;&lt;/u&gt;" style="text;whiteSpace=wrap;html=1;" parent="1" vertex="1">
          <mxGeometry x="31.62" y="220" width="130" height="40" as="geometry" />
        </mxCell>
        <mxCell id="0v7TyIDGhViwFiE-gd_m-12" value="&lt;font color=&quot;#3b26ff&quot;&gt;&lt;u&gt;Выбранный день:&lt;/u&gt;&lt;/font&gt;" style="text;html=1;align=center;verticalAlign=middle;resizable=0;points=[];autosize=1;strokeColor=none;fillColor=none;" parent="1" vertex="1">
          <mxGeometry x="317.63" y="280" width="120" height="30" as="geometry" />
        </mxCell>
        <mxCell id="0v7TyIDGhViwFiE-gd_m-13" value="&lt;font color=&quot;#3b26ff&quot;&gt;&lt;u&gt;Админка:&lt;/u&gt;&lt;/font&gt;" style="text;html=1;align=center;verticalAlign=middle;resizable=0;points=[];autosize=1;strokeColor=none;fillColor=none;" parent="1" vertex="1">
          <mxGeometry x="25.75" y="480" width="80" height="30" as="geometry" />
        </mxCell>
        <mxCell id="0v7TyIDGhViwFiE-gd_m-14" value="Назад" style="rounded=0;whiteSpace=wrap;html=1;" parent="1" vertex="1">
          <mxGeometry x="43" y="1080" width="140" height="30" as="geometry" />
        </mxCell>
        <mxCell id="0v7TyIDGhViwFiE-gd_m-15" value="Логи" style="rounded=0;whiteSpace=wrap;html=1;" parent="1" vertex="1">
          <mxGeometry x="45.75" y="520" width="120" height="30" as="geometry" />
        </mxCell>
        <mxCell id="0v7TyIDGhViwFiE-gd_m-16" value="Показать стартовую настройку" style="rounded=0;whiteSpace=wrap;html=1;" parent="1" vertex="1">
          <mxGeometry x="45.75" y="560" width="120" height="30" as="geometry" />
        </mxCell>
        <mxCell id="0v7TyIDGhViwFiE-gd_m-17" value="Сменить режим исп. лимитов" style="rounded=0;whiteSpace=wrap;html=1;" parent="1" vertex="1">
          <mxGeometry x="45.75" y="600" width="120" height="30" as="geometry" />
        </mxCell>
        <mxCell id="0v7TyIDGhViwFiE-gd_m-18" value="Сменить режим белого списка" style="rounded=0;whiteSpace=wrap;html=1;" parent="1" vertex="1">
          <mxGeometry x="45.75" y="640" width="120" height="30" as="geometry" />
        </mxCell>
        <mxCell id="0v7TyIDGhViwFiE-gd_m-19" value="Сменить white/black list у пользователя" style="rounded=0;whiteSpace=wrap;html=1;" parent="1" vertex="1">
          <mxGeometry x="45.75" y="680" width="120" height="30" as="geometry" />
        </mxCell>
        <mxCell id="0v7TyIDGhViwFiE-gd_m-20" value="Удалить пользователя" style="rounded=0;whiteSpace=wrap;html=1;" parent="1" vertex="1">
          <mxGeometry x="45.75" y="720" width="120" height="30" as="geometry" />
        </mxCell>
        <mxCell id="0v7TyIDGhViwFiE-gd_m-21" value="Выключить бота" style="rounded=0;whiteSpace=wrap;html=1;" parent="1" vertex="1">
          <mxGeometry x="45.75" y="760" width="120" height="30" as="geometry" />
        </mxCell>
        <mxCell id="0v7TyIDGhViwFiE-gd_m-22" value="Назад" style="rounded=0;whiteSpace=wrap;html=1;" parent="1" vertex="1">
          <mxGeometry x="45.75" y="800" width="120" height="30" as="geometry" />
        </mxCell>
        <mxCell id="0v7TyIDGhViwFiE-gd_m-23" value="Показать последний лог" style="rounded=0;whiteSpace=wrap;html=1;" parent="1" vertex="1">
          <mxGeometry x="250" y="520" width="120" height="30" as="geometry" />
        </mxCell>
        <mxCell id="0v7TyIDGhViwFiE-gd_m-24" value="Показать последние логи ошибок" style="rounded=0;whiteSpace=wrap;html=1;" parent="1" vertex="1">
          <mxGeometry x="250" y="560" width="120" height="30" as="geometry" />
        </mxCell>
        <mxCell id="0v7TyIDGhViwFiE-gd_m-25" value="Найти лог по ID" style="rounded=0;whiteSpace=wrap;html=1;" parent="1" vertex="1">
          <mxGeometry x="250" y="600" width="120" height="30" as="geometry" />
        </mxCell>
        <mxCell id="0v7TyIDGhViwFiE-gd_m-26" value="Найти лог по eventID" style="rounded=0;whiteSpace=wrap;html=1;" parent="1" vertex="1">
          <mxGeometry x="250" y="640" width="120" height="30" as="geometry" />
        </mxCell>
        <mxCell id="0v7TyIDGhViwFiE-gd_m-27" value="Назад" style="rounded=0;whiteSpace=wrap;html=1;" parent="1" vertex="1">
          <mxGeometry x="250" y="680" width="120" height="30" as="geometry" />
        </mxCell>
        <mxCell id="0v7TyIDGhViwFiE-gd_m-28" value="" style="rounded=0;whiteSpace=wrap;html=1;fillColor=none;" parent="1" vertex="1">
          <mxGeometry x="35" y="510" width="170" height="330" as="geometry" />
        </mxCell>
        <mxCell id="0v7TyIDGhViwFiE-gd_m-29" value="" style="rounded=0;whiteSpace=wrap;html=1;strokeColor=default;fillColor=none;" parent="1" vertex="1">
          <mxGeometry x="242.75" y="510" width="163" height="210" as="geometry" />
        </mxCell>
        <mxCell id="0v7TyIDGhViwFiE-gd_m-30" value="" style="rounded=0;whiteSpace=wrap;html=1;fillColor=none;" parent="1" vertex="1">
          <mxGeometry x="25.75" y="222.5" width="556.62" height="232.5" as="geometry" />
        </mxCell>
        <mxCell id="0v7TyIDGhViwFiE-gd_m-31" value="" style="rounded=0;whiteSpace=wrap;html=1;fillColor=none;" parent="1" vertex="1">
          <mxGeometry x="25.75" y="480" width="390" height="370" as="geometry" />
        </mxCell>
        <mxCell id="0v7TyIDGhViwFiE-gd_m-32" value="&lt;font color=&quot;#3b26ff&quot;&gt;&lt;u&gt;Логи:&lt;/u&gt;&lt;/font&gt;" style="text;html=1;align=center;verticalAlign=middle;resizable=0;points=[];autosize=1;strokeColor=none;fillColor=none;" parent="1" vertex="1">
          <mxGeometry x="236.5" y="480" width="50" height="30" as="geometry" />
        </mxCell>
        <mxCell id="0v7TyIDGhViwFiE-gd_m-33" value="Экспорт тренировок" style="rounded=0;whiteSpace=wrap;html=1;" parent="1" vertex="1">
          <mxGeometry x="43" y="1000" width="140" height="30" as="geometry" />
        </mxCell>
        <mxCell id="0v7TyIDGhViwFiE-gd_m-34" value="Удалить свой аккаунт" style="rounded=0;whiteSpace=wrap;html=1;" parent="1" vertex="1">
          <mxGeometry x="43" y="1040" width="140" height="30" as="geometry" />
        </mxCell>
        <mxCell id="0v7TyIDGhViwFiE-gd_m-35" value="Настройка тренировочных циклов" style="rounded=0;whiteSpace=wrap;html=1;" parent="1" vertex="1">
          <mxGeometry x="43" y="920" width="140" height="30" as="geometry" />
        </mxCell>
        <mxCell id="0v7TyIDGhViwFiE-gd_m-36" value="Архив" style="rounded=0;whiteSpace=wrap;html=1;" parent="1" vertex="1">
          <mxGeometry x="43" y="960" width="140" height="30" as="geometry" />
        </mxCell>
        <mxCell id="0v7TyIDGhViwFiE-gd_m-37" value="&lt;font color=&quot;#3b26ff&quot;&gt;&lt;u&gt;Архив:&lt;/u&gt;&lt;/font&gt;" style="text;html=1;align=center;verticalAlign=middle;resizable=0;points=[];autosize=1;strokeColor=none;fillColor=none;" parent="1" vertex="1">
          <mxGeometry x="35" y="2370" width="60" height="30" as="geometry" />
        </mxCell>
        <mxCell id="0v7TyIDGhViwFiE-gd_m-38" value="Архивированные циклы" style="rounded=0;whiteSpace=wrap;html=1;" parent="1" vertex="1">
          <mxGeometry x="48.5" y="2410" width="140" height="30" as="geometry" />
        </mxCell>
        <mxCell id="0v7TyIDGhViwFiE-gd_m-39" value="Архивированные дни" style="rounded=0;whiteSpace=wrap;html=1;" parent="1" vertex="1">
          <mxGeometry x="48.5" y="2450" width="140" height="30" as="geometry" />
        </mxCell>
        <mxCell id="0v7TyIDGhViwFiE-gd_m-40" value="Архивированные упражнения" style="rounded=0;whiteSpace=wrap;html=1;" parent="1" vertex="1">
          <mxGeometry x="48.5" y="2490" width="140" height="30" as="geometry" />
        </mxCell>
        <mxCell id="0v7TyIDGhViwFiE-gd_m-41" value="Назад" style="rounded=0;whiteSpace=wrap;html=1;" parent="1" vertex="1">
          <mxGeometry x="48.5" y="2530" width="140" height="30" as="geometry" />
        </mxCell>
        <mxCell id="0v7TyIDGhViwFiE-gd_m-42" value="&lt;font color=&quot;#3b26ff&quot;&gt;&lt;u&gt;Абс:&lt;/u&gt;&lt;/font&gt;" style="text;html=1;align=center;verticalAlign=middle;resizable=0;points=[];autosize=1;strokeColor=none;fillColor=none;" parent="1" vertex="1">
          <mxGeometry x="596.5" y="2652.5" width="50" height="30" as="geometry" />
        </mxCell>
        <mxCell id="0v7TyIDGhViwFiE-gd_m-43" value="Абс" style="rounded=0;whiteSpace=wrap;html=1;" parent="1" vertex="1">
          <mxGeometry x="602.25" y="2682.5" width="140" height="30" as="geometry" />
        </mxCell>
        <mxCell id="0v7TyIDGhViwFiE-gd_m-44" value="" style="endArrow=classic;html=1;rounded=0;" parent="1" edge="1">
          <mxGeometry width="50" height="50" relative="1" as="geometry">
            <mxPoint x="602.25" y="2782.67" as="sourcePoint" />
            <mxPoint x="632.25" y="2782.5" as="targetPoint" />
          </mxGeometry>
        </mxCell>
        <mxCell id="0v7TyIDGhViwFiE-gd_m-45" value="" style="endArrow=classic;html=1;rounded=0;" parent="1" edge="1">
          <mxGeometry width="50" height="50" relative="1" as="geometry">
            <mxPoint x="284.25" y="374.75000000000006" as="sourcePoint" />
            <mxPoint x="314.25" y="374.58" as="targetPoint" />
          </mxGeometry>
        </mxCell>
        <mxCell id="0v7TyIDGhViwFiE-gd_m-46" value="" style="endArrow=classic;html=1;rounded=0;" parent="1" edge="1">
          <mxGeometry width="50" height="50" relative="1" as="geometry">
            <mxPoint x="211.75" y="534.83" as="sourcePoint" />
            <mxPoint x="241.75" y="534.66" as="targetPoint" />
          </mxGeometry>
        </mxCell>
        <mxCell id="0v7TyIDGhViwFiE-gd_m-47" value="Список арх. циклов" style="strokeWidth=2;html=1;shape=mxgraph.flowchart.annotation_1;align=left;pointerEvents=1;" parent="1" vertex="1">
          <mxGeometry x="283.25" y="2410" width="10" height="30" as="geometry" />
        </mxCell>
        <mxCell id="0v7TyIDGhViwFiE-gd_m-48" value="" style="endArrow=classic;html=1;rounded=0;" parent="1" edge="1">
          <mxGeometry width="50" height="50" relative="1" as="geometry">
            <mxPoint x="232" y="2424.83" as="sourcePoint" />
            <mxPoint x="262" y="2424.66" as="targetPoint" />
          </mxGeometry>
        </mxCell>
        <mxCell id="0v7TyIDGhViwFiE-gd_m-49" value="" style="endArrow=classic;html=1;rounded=0;" parent="1" edge="1">
          <mxGeometry width="50" height="50" relative="1" as="geometry">
            <mxPoint x="232" y="2464.83" as="sourcePoint" />
            <mxPoint x="262" y="2464.66" as="targetPoint" />
          </mxGeometry>
        </mxCell>
        <mxCell id="0v7TyIDGhViwFiE-gd_m-50" value="" style="endArrow=classic;html=1;rounded=0;" parent="1" edge="1">
          <mxGeometry width="50" height="50" relative="1" as="geometry">
            <mxPoint x="232" y="2504.83" as="sourcePoint" />
            <mxPoint x="262" y="2504.66" as="targetPoint" />
          </mxGeometry>
        </mxCell>
        <mxCell id="0v7TyIDGhViwFiE-gd_m-51" value="Список арх. дней" style="strokeWidth=2;html=1;shape=mxgraph.flowchart.annotation_1;align=left;pointerEvents=1;" parent="1" vertex="1">
          <mxGeometry x="283.25" y="2450" width="10" height="30" as="geometry" />
        </mxCell>
        <mxCell id="0v7TyIDGhViwFiE-gd_m-52" value="Список арх. упражнений" style="strokeWidth=2;html=1;shape=mxgraph.flowchart.annotation_1;align=left;pointerEvents=1;" parent="1" vertex="1">
          <mxGeometry x="281.5" y="2490" width="10" height="30" as="geometry" />
        </mxCell>
        <mxCell id="0v7TyIDGhViwFiE-gd_m-53" value="Список дней из тренировочного цикла" style="strokeWidth=2;html=1;shape=mxgraph.flowchart.annotation_1;align=left;pointerEvents=1;" parent="1" vertex="1">
          <mxGeometry x="44.25" y="360" width="10" height="30" as="geometry" />
        </mxCell>
        <mxCell id="0v7TyIDGhViwFiE-gd_m-54" value="Абс" style="strokeWidth=2;html=1;shape=mxgraph.flowchart.annotation_1;align=left;pointerEvents=1;" parent="1" vertex="1">
          <mxGeometry x="602.25" y="2732.5" width="10" height="30" as="geometry" />
        </mxCell>
        <mxCell id="0v7TyIDGhViwFiE-gd_m-55" value="Список упражнений для этого дня" style="strokeWidth=2;html=1;shape=mxgraph.flowchart.annotation_1;align=left;pointerEvents=1;" parent="1" vertex="1">
          <mxGeometry x="334.25" y="360" width="10" height="30" as="geometry" />
        </mxCell>
        <mxCell id="0v7TyIDGhViwFiE-gd_m-56" value="&lt;font color=&quot;#3b26ff&quot;&gt;&lt;u&gt;Настройка тренировочных циклов:&lt;/u&gt;&lt;/font&gt;" style="text;html=1;align=center;verticalAlign=middle;resizable=0;points=[];autosize=1;strokeColor=none;fillColor=none;" parent="1" vertex="1">
          <mxGeometry x="26.25" y="1169" width="220" height="30" as="geometry" />
        </mxCell>
        <mxCell id="0v7TyIDGhViwFiE-gd_m-57" value="Добавить новый цикл" style="rounded=0;whiteSpace=wrap;html=1;" parent="1" vertex="1">
          <mxGeometry x="45" y="1209.5" width="140" height="30" as="geometry" />
        </mxCell>
        <mxCell id="0v7TyIDGhViwFiE-gd_m-58" value="Настройка существующих циклов" style="rounded=0;whiteSpace=wrap;html=1;" parent="1" vertex="1">
          <mxGeometry x="45" y="1249.5" width="140" height="30" as="geometry" />
        </mxCell>
        <mxCell id="0v7TyIDGhViwFiE-gd_m-59" value="Вернуться к главному меню" style="rounded=0;whiteSpace=wrap;html=1;" parent="1" vertex="1">
          <mxGeometry x="45" y="1289.5" width="140" height="30" as="geometry" />
        </mxCell>
        <mxCell id="0v7TyIDGhViwFiE-gd_m-60" value="Назад" style="rounded=0;whiteSpace=wrap;html=1;" parent="1" vertex="1">
          <mxGeometry x="45" y="1329.5" width="140" height="30" as="geometry" />
        </mxCell>
        <mxCell id="0v7TyIDGhViwFiE-gd_m-61" value="Список циклов" style="strokeWidth=2;html=1;shape=mxgraph.flowchart.annotation_1;align=left;pointerEvents=1;" parent="1" vertex="1">
          <mxGeometry x="279" y="1249.5" width="10" height="30" as="geometry" />
        </mxCell>
        <mxCell id="0v7TyIDGhViwFiE-gd_m-62" value="" style="endArrow=classic;html=1;rounded=0;" parent="1" edge="1">
          <mxGeometry width="50" height="50" relative="1" as="geometry">
            <mxPoint x="228" y="1264.6699999999998" as="sourcePoint" />
            <mxPoint x="258" y="1264.4999999999998" as="targetPoint" />
          </mxGeometry>
        </mxCell>
        <mxCell id="0v7TyIDGhViwFiE-gd_m-63" value="Назад" style="rounded=0;whiteSpace=wrap;html=1;" parent="1" vertex="1">
          <mxGeometry x="279" y="1289.5" width="140" height="30" as="geometry" />
        </mxCell>
        <mxCell id="0v7TyIDGhViwFiE-gd_m-64" value="&lt;font color=&quot;#3b26ff&quot;&gt;&lt;u&gt;Настройка существующих циклов:&lt;/u&gt;&lt;/font&gt;" style="text;html=1;align=center;verticalAlign=middle;resizable=0;points=[];autosize=1;strokeColor=none;fillColor=none;" parent="1" vertex="1">
          <mxGeometry x="256" y="1209.5" width="220" height="30" as="geometry" />
        </mxCell>
        <mxCell id="0v7TyIDGhViwFiE-gd_m-65" value="&lt;font color=&quot;#3b26ff&quot;&gt;&lt;u&gt;Настройка выбранного цикла:&lt;/u&gt;&lt;/font&gt;" style="text;html=1;align=center;verticalAlign=middle;resizable=0;points=[];autosize=1;strokeColor=none;fillColor=none;" parent="1" vertex="1">
          <mxGeometry x="481" y="1209.5" width="190" height="30" as="geometry" />
        </mxCell>
        <mxCell id="0v7TyIDGhViwFiE-gd_m-66" value="Сделать активным" style="rounded=0;whiteSpace=wrap;html=1;" parent="1" vertex="1">
          <mxGeometry x="499.5" y="1249.5" width="140" height="30" as="geometry" />
        </mxCell>
        <mxCell id="0v7TyIDGhViwFiE-gd_m-67" value="Добавить в архив" style="rounded=0;whiteSpace=wrap;html=1;" parent="1" vertex="1">
          <mxGeometry x="499.5" y="1329.5" width="140" height="30" as="geometry" />
        </mxCell>
        <mxCell id="0v7TyIDGhViwFiE-gd_m-68" value="Сменить название" style="rounded=0;whiteSpace=wrap;html=1;" parent="1" vertex="1">
          <mxGeometry x="499.5" y="1289.5" width="140" height="30" as="geometry" />
        </mxCell>
        <mxCell id="0v7TyIDGhViwFiE-gd_m-69" value="Удалить" style="rounded=0;whiteSpace=wrap;html=1;" parent="1" vertex="1">
          <mxGeometry x="499.5" y="1369.5" width="140" height="30" as="geometry" />
        </mxCell>
        <mxCell id="0v7TyIDGhViwFiE-gd_m-70" value="Настройка дней" style="rounded=0;whiteSpace=wrap;html=1;" parent="1" vertex="1">
          <mxGeometry x="499.5" y="1409.5" width="140" height="30" as="geometry" />
        </mxCell>
        <mxCell id="0v7TyIDGhViwFiE-gd_m-71" value="Назад" style="rounded=0;whiteSpace=wrap;html=1;" parent="1" vertex="1">
          <mxGeometry x="499.5" y="1489.5" width="140" height="30" as="geometry" />
        </mxCell>
        <mxCell id="0v7TyIDGhViwFiE-gd_m-72" value="Вернуться к главному меню" style="rounded=0;whiteSpace=wrap;html=1;" parent="1" vertex="1">
          <mxGeometry x="499.5" y="1449.5" width="140" height="30" as="geometry" />
        </mxCell>
        <mxCell id="0v7TyIDGhViwFiE-gd_m-73" value="&lt;font color=&quot;#3b26ff&quot;&gt;&lt;u&gt;Настройка дней:&lt;/u&gt;&lt;/font&gt;" style="text;html=1;align=center;verticalAlign=middle;resizable=0;points=[];autosize=1;strokeColor=none;fillColor=none;" parent="1" vertex="1">
          <mxGeometry x="26.25" y="1569" width="120" height="30" as="geometry" />
        </mxCell>
        <mxCell id="0v7TyIDGhViwFiE-gd_m-74" value="Добавить новый день в цикл" style="rounded=0;whiteSpace=wrap;html=1;" parent="1" vertex="1">
          <mxGeometry x="46.25" y="1609" width="140" height="30" as="geometry" />
        </mxCell>
        <mxCell id="0v7TyIDGhViwFiE-gd_m-75" value="Настройка существующих дней" style="rounded=0;whiteSpace=wrap;html=1;" parent="1" vertex="1">
          <mxGeometry x="46.25" y="1649" width="140" height="30" as="geometry" />
        </mxCell>
        <mxCell id="0v7TyIDGhViwFiE-gd_m-76" value="Вернуться к главному меню" style="rounded=0;whiteSpace=wrap;html=1;" parent="1" vertex="1">
          <mxGeometry x="46.25" y="1689" width="140" height="30" as="geometry" />
        </mxCell>
        <mxCell id="0v7TyIDGhViwFiE-gd_m-77" value="Назад" style="rounded=0;whiteSpace=wrap;html=1;" parent="1" vertex="1">
          <mxGeometry x="46.25" y="1729" width="140" height="30" as="geometry" />
        </mxCell>
        <mxCell id="0v7TyIDGhViwFiE-gd_m-78" value="Список дней" style="strokeWidth=2;html=1;shape=mxgraph.flowchart.annotation_1;align=left;pointerEvents=1;" parent="1" vertex="1">
          <mxGeometry x="267" y="1649" width="10" height="30" as="geometry" />
        </mxCell>
        <mxCell id="0v7TyIDGhViwFiE-gd_m-79" value="Назад" style="rounded=0;whiteSpace=wrap;html=1;" parent="1" vertex="1">
          <mxGeometry x="266.75" y="1689" width="140" height="30" as="geometry" />
        </mxCell>
        <mxCell id="0v7TyIDGhViwFiE-gd_m-80" value="&lt;font color=&quot;#3b26ff&quot;&gt;&lt;u&gt;Настройка существующих дней:&lt;/u&gt;&lt;/font&gt;" style="text;html=1;align=center;verticalAlign=middle;resizable=0;points=[];autosize=1;strokeColor=none;fillColor=none;" parent="1" vertex="1">
          <mxGeometry x="252.38" y="1609" width="200" height="30" as="geometry" />
        </mxCell>
        <mxCell id="0v7TyIDGhViwFiE-gd_m-81" value="&lt;font color=&quot;#3b26ff&quot;&gt;&lt;u&gt;Настройка выбранного дня:&lt;/u&gt;&lt;/font&gt;" style="text;html=1;align=center;verticalAlign=middle;resizable=0;points=[];autosize=1;strokeColor=none;fillColor=none;" parent="1" vertex="1">
          <mxGeometry x="474.62" y="1609" width="180" height="30" as="geometry" />
        </mxCell>
        <mxCell id="0v7TyIDGhViwFiE-gd_m-82" value="Перенести день" style="rounded=0;whiteSpace=wrap;html=1;" parent="1" vertex="1">
          <mxGeometry x="494.62" y="1689" width="140" height="30" as="geometry" />
        </mxCell>
        <mxCell id="0v7TyIDGhViwFiE-gd_m-83" value="Добавить в архив" style="rounded=0;whiteSpace=wrap;html=1;" parent="1" vertex="1">
          <mxGeometry x="494.62" y="1729" width="140" height="30" as="geometry" />
        </mxCell>
        <mxCell id="0v7TyIDGhViwFiE-gd_m-84" value="Сменить название" style="rounded=0;whiteSpace=wrap;html=1;" parent="1" vertex="1">
          <mxGeometry x="494.62" y="1649" width="140" height="30" as="geometry" />
        </mxCell>
        <mxCell id="0v7TyIDGhViwFiE-gd_m-85" value="Удалить" style="rounded=0;whiteSpace=wrap;html=1;" parent="1" vertex="1">
          <mxGeometry x="494.62" y="1769" width="140" height="30" as="geometry" />
        </mxCell>
        <mxCell id="0v7TyIDGhViwFiE-gd_m-86" value="Настройка упражнений" style="rounded=0;whiteSpace=wrap;html=1;" parent="1" vertex="1">
          <mxGeometry x="494.62" y="1809" width="140" height="30" as="geometry" />
        </mxCell>
        <mxCell id="0v7TyIDGhViwFiE-gd_m-87" value="Назад" style="rounded=0;whiteSpace=wrap;html=1;" parent="1" vertex="1">
          <mxGeometry x="494.62" y="1889" width="140" height="30" as="geometry" />
        </mxCell>
        <mxCell id="0v7TyIDGhViwFiE-gd_m-88" value="Вернуться к главному меню" style="rounded=0;whiteSpace=wrap;html=1;" parent="1" vertex="1">
          <mxGeometry x="494.62" y="1849" width="140" height="30" as="geometry" />
        </mxCell>
        <mxCell id="0v7TyIDGhViwFiE-gd_m-89" value="&lt;font color=&quot;#3b26ff&quot;&gt;&lt;u&gt;Настройка упражнений:&lt;/u&gt;&lt;/font&gt;" style="text;html=1;align=center;verticalAlign=middle;resizable=0;points=[];autosize=1;strokeColor=none;fillColor=none;" parent="1" vertex="1">
          <mxGeometry x="29.25" y="1968" width="160" height="30" as="geometry" />
        </mxCell>
        <mxCell id="0v7TyIDGhViwFiE-gd_m-90" value="Добавить новые упражнения в день" style="rounded=0;whiteSpace=wrap;html=1;" parent="1" vertex="1">
          <mxGeometry x="46.379999999999995" y="2003" width="140" height="30" as="geometry" />
        </mxCell>
        <mxCell id="0v7TyIDGhViwFiE-gd_m-91" value="Настройка сущ. упражнений" style="rounded=0;whiteSpace=wrap;html=1;" parent="1" vertex="1">
          <mxGeometry x="46.379999999999995" y="2043" width="140" height="30" as="geometry" />
        </mxCell>
        <mxCell id="0v7TyIDGhViwFiE-gd_m-92" value="Вернуться к главному меню" style="rounded=0;whiteSpace=wrap;html=1;" parent="1" vertex="1">
          <mxGeometry x="46.379999999999995" y="2083" width="140" height="30" as="geometry" />
        </mxCell>
        <mxCell id="0v7TyIDGhViwFiE-gd_m-93" value="Назад" style="rounded=0;whiteSpace=wrap;html=1;" parent="1" vertex="1">
          <mxGeometry x="46.379999999999995" y="2123" width="140" height="30" as="geometry" />
        </mxCell>
        <mxCell id="0v7TyIDGhViwFiE-gd_m-94" value="Список упражнений" style="strokeWidth=2;html=1;shape=mxgraph.flowchart.annotation_1;align=left;pointerEvents=1;" parent="1" vertex="1">
          <mxGeometry x="281.25" y="2040.5" width="10" height="30" as="geometry" />
        </mxCell>
        <mxCell id="0v7TyIDGhViwFiE-gd_m-95" value="Назад" style="rounded=0;whiteSpace=wrap;html=1;" parent="1" vertex="1">
          <mxGeometry x="281.25" y="2080.5" width="140" height="30" as="geometry" />
        </mxCell>
        <mxCell id="0v7TyIDGhViwFiE-gd_m-96" value="&lt;font color=&quot;#3b26ff&quot;&gt;&lt;u&gt;Настройка существующих упражнений:&lt;/u&gt;&lt;/font&gt;" style="text;html=1;align=center;verticalAlign=middle;resizable=0;points=[];autosize=1;strokeColor=none;fillColor=none;" parent="1" vertex="1">
          <mxGeometry x="259.75" y="1995.5" width="240" height="30" as="geometry" />
        </mxCell>
        <mxCell id="0v7TyIDGhViwFiE-gd_m-97" value="&lt;font color=&quot;#3b26ff&quot;&gt;&lt;u&gt;Настройка выбранного упражнения:&lt;/u&gt;&lt;/font&gt;" style="text;html=1;align=center;verticalAlign=middle;resizable=0;points=[];autosize=1;strokeColor=none;fillColor=none;" parent="1" vertex="1">
          <mxGeometry x="479.5" y="2010.5" width="230" height="30" as="geometry" />
        </mxCell>
        <mxCell id="0v7TyIDGhViwFiE-gd_m-98" value="Сменить тип" style="rounded=0;whiteSpace=wrap;html=1;" parent="1" vertex="1">
          <mxGeometry x="507.5" y="2088" width="140" height="30" as="geometry" />
        </mxCell>
        <mxCell id="0v7TyIDGhViwFiE-gd_m-99" value="Добавить в архив" style="rounded=0;whiteSpace=wrap;html=1;" parent="1" vertex="1">
          <mxGeometry x="507.5" y="2168" width="140" height="30" as="geometry" />
        </mxCell>
        <mxCell id="0v7TyIDGhViwFiE-gd_m-100" value="Сменить название" style="rounded=0;whiteSpace=wrap;html=1;" parent="1" vertex="1">
          <mxGeometry x="507.5" y="2048" width="140" height="30" as="geometry" />
        </mxCell>
        <mxCell id="0v7TyIDGhViwFiE-gd_m-101" value="Удалить" style="rounded=0;whiteSpace=wrap;html=1;" parent="1" vertex="1">
          <mxGeometry x="507.5" y="2208" width="140" height="30" as="geometry" />
        </mxCell>
        <mxCell id="0v7TyIDGhViwFiE-gd_m-102" value="Назад" style="rounded=0;whiteSpace=wrap;html=1;" parent="1" vertex="1">
          <mxGeometry x="507.5" y="2288" width="140" height="30" as="geometry" />
        </mxCell>
        <mxCell id="0v7TyIDGhViwFiE-gd_m-103" value="Вернуться к главному меню" style="rounded=0;whiteSpace=wrap;html=1;" parent="1" vertex="1">
          <mxGeometry x="507.5" y="2248" width="140" height="30" as="geometry" />
        </mxCell>
        <mxCell id="0v7TyIDGhViwFiE-gd_m-104" value="Перенести упражнение" style="rounded=0;whiteSpace=wrap;html=1;" parent="1" vertex="1">
          <mxGeometry x="507.5" y="2128" width="140" height="30" as="geometry" />
        </mxCell>
        <mxCell id="0v7TyIDGhViwFiE-gd_m-105" value="" style="endArrow=classic;html=1;rounded=0;" parent="1" edge="1">
          <mxGeometry width="50" height="50" relative="1" as="geometry">
            <mxPoint x="229.38" y="2058.17" as="sourcePoint" />
            <mxPoint x="259.38" y="2058" as="targetPoint" />
          </mxGeometry>
        </mxCell>
        <mxCell id="0v7TyIDGhViwFiE-gd_m-106" value="" style="rounded=0;whiteSpace=wrap;html=1;strokeColor=default;fillColor=none;" parent="1" vertex="1">
          <mxGeometry x="271" y="2025.5" width="175.75" height="95" as="geometry" />
        </mxCell>
        <mxCell id="0v7TyIDGhViwFiE-gd_m-107" value="" style="rounded=0;whiteSpace=wrap;html=1;fillColor=none;" parent="1" vertex="1">
          <mxGeometry x="40.75" y="1998" width="179.25" height="162.5" as="geometry" />
        </mxCell>
        <mxCell id="0v7TyIDGhViwFiE-gd_m-108" value="" style="rounded=0;whiteSpace=wrap;html=1;fillColor=none;" parent="1" vertex="1">
          <mxGeometry x="39.75" y="1599" width="175.75" height="170" as="geometry" />
        </mxCell>
        <mxCell id="0v7TyIDGhViwFiE-gd_m-109" value="" style="rounded=0;whiteSpace=wrap;html=1;fillColor=none;" parent="1" vertex="1">
          <mxGeometry x="31.5" y="1968" width="670.75" height="370" as="geometry" />
        </mxCell>
        <mxCell id="0v7TyIDGhViwFiE-gd_m-110" value="" style="rounded=0;whiteSpace=wrap;html=1;fillColor=none;" parent="1" vertex="1">
          <mxGeometry x="261.18" y="1639" width="173.63" height="90" as="geometry" />
        </mxCell>
        <mxCell id="0v7TyIDGhViwFiE-gd_m-111" value="" style="rounded=0;whiteSpace=wrap;html=1;fillColor=none;" parent="1" vertex="1">
          <mxGeometry x="496.38" y="2040.5" width="185.5" height="287.5" as="geometry" />
        </mxCell>
        <mxCell id="0v7TyIDGhViwFiE-gd_m-112" value="" style="endArrow=classic;html=1;rounded=0;" parent="1" edge="1">
          <mxGeometry width="50" height="50" relative="1" as="geometry">
            <mxPoint x="459.5" y="2062.17" as="sourcePoint" />
            <mxPoint x="489.5" y="2062" as="targetPoint" />
          </mxGeometry>
        </mxCell>
        <mxCell id="0v7TyIDGhViwFiE-gd_m-113" value="" style="endArrow=classic;html=1;rounded=0;" parent="1" edge="1">
          <mxGeometry width="50" height="50" relative="1" as="geometry">
            <mxPoint x="219.75" y="1663.6699999999998" as="sourcePoint" />
            <mxPoint x="249.75" y="1663.5" as="targetPoint" />
          </mxGeometry>
        </mxCell>
        <mxCell id="0v7TyIDGhViwFiE-gd_m-114" value="" style="endArrow=classic;html=1;rounded=0;" parent="1" edge="1">
          <mxGeometry width="50" height="50" relative="1" as="geometry">
            <mxPoint x="443.12" y="1663.6699999999998" as="sourcePoint" />
            <mxPoint x="473.12" y="1663.5" as="targetPoint" />
          </mxGeometry>
        </mxCell>
        <mxCell id="0v7TyIDGhViwFiE-gd_m-115" value="" style="rounded=0;whiteSpace=wrap;html=1;fillColor=none;" parent="1" vertex="1">
          <mxGeometry x="486.44000000000005" y="1639" width="180.12" height="290" as="geometry" />
        </mxCell>
        <mxCell id="0v7TyIDGhViwFiE-gd_m-116" value="" style="rounded=0;whiteSpace=wrap;html=1;fillColor=none;" parent="1" vertex="1">
          <mxGeometry x="29.25" y="1574" width="677.75" height="365" as="geometry" />
        </mxCell>
        <mxCell id="0v7TyIDGhViwFiE-gd_m-117" value="&lt;font color=&quot;#3b26ff&quot;&gt;&lt;u&gt;Стартовая страница после регистрации:&lt;/u&gt;&lt;/font&gt;" style="text;html=1;align=center;verticalAlign=middle;resizable=0;points=[];autosize=1;strokeColor=none;fillColor=none;" parent="1" vertex="1">
          <mxGeometry x="19.25" y="20" width="250" height="30" as="geometry" />
        </mxCell>
        <mxCell id="0v7TyIDGhViwFiE-gd_m-118" value="" style="rounded=0;whiteSpace=wrap;html=1;fillColor=none;" parent="1" vertex="1">
          <mxGeometry x="36" y="1199" width="184.75" height="170" as="geometry" />
        </mxCell>
        <mxCell id="0v7TyIDGhViwFiE-gd_m-119" value="" style="rounded=0;whiteSpace=wrap;html=1;fillColor=none;" parent="1" vertex="1">
          <mxGeometry x="268" y="1238.5" width="170.75" height="91" as="geometry" />
        </mxCell>
        <mxCell id="0v7TyIDGhViwFiE-gd_m-120" value="" style="endArrow=classic;html=1;rounded=0;" parent="1" edge="1">
          <mxGeometry width="50" height="50" relative="1" as="geometry">
            <mxPoint x="449" y="1264.67" as="sourcePoint" />
            <mxPoint x="479" y="1264.5" as="targetPoint" />
          </mxGeometry>
        </mxCell>
        <mxCell id="0v7TyIDGhViwFiE-gd_m-121" value="" style="rounded=0;whiteSpace=wrap;html=1;fillColor=none;" parent="1" vertex="1">
          <mxGeometry x="489.5" y="1240" width="181.5" height="289" as="geometry" />
        </mxCell>
        <mxCell id="0v7TyIDGhViwFiE-gd_m-122" value="" style="rounded=0;whiteSpace=wrap;html=1;fillColor=none;" parent="1" vertex="1">
          <mxGeometry x="25.75" y="1169" width="695" height="370" as="geometry" />
        </mxCell>
        <mxCell id="0v7TyIDGhViwFiE-gd_m-123" value="" style="rounded=0;whiteSpace=wrap;html=1;fillColor=none;" parent="1" vertex="1">
          <mxGeometry x="25.75" y="880" width="245.75" height="250" as="geometry" />
        </mxCell>
        <mxCell id="0v7TyIDGhViwFiE-gd_m-124" value="" style="rounded=0;whiteSpace=wrap;html=1;fillColor=none;" parent="1" vertex="1">
          <mxGeometry x="30.25" y="2370" width="430.75" height="210" as="geometry" />
        </mxCell>
        <mxCell id="0v7TyIDGhViwFiE-gd_m-125" value="" style="endArrow=classic;html=1;rounded=0;" parent="1" edge="1">
          <mxGeometry width="50" height="50" relative="1" as="geometry">
            <mxPoint x="453" y="138.54000000000008" as="sourcePoint" />
            <mxPoint x="483.00000000000006" y="138.37" as="targetPoint" />
          </mxGeometry>
        </mxCell>
        <mxCell id="0v7TyIDGhViwFiE-gd_m-126" value="Абс" style="strokeWidth=2;html=1;shape=mxgraph.flowchart.annotation_1;align=left;pointerEvents=1;" parent="1" vertex="1">
          <mxGeometry x="453" y="93.75" width="10" height="30" as="geometry" />
        </mxCell>
        <mxCell id="0v7TyIDGhViwFiE-gd_m-127" value="&lt;font color=&quot;#3b26ff&quot;&gt;&lt;u&gt;Абс&lt;/u&gt;&lt;/font&gt;" style="text;html=1;align=center;verticalAlign=middle;resizable=0;points=[];autosize=1;strokeColor=none;fillColor=none;" parent="1" vertex="1">
          <mxGeometry x="446.25" y="23.75" width="40" height="30" as="geometry" />
        </mxCell>
        <mxCell id="0v7TyIDGhViwFiE-gd_m-128" value="Абс" style="rounded=0;whiteSpace=wrap;html=1;" parent="1" vertex="1">
          <mxGeometry x="453" y="53.75" width="140" height="30" as="geometry" />
        </mxCell>
        <mxCell id="0v7TyIDGhViwFiE-gd_m-129" value="&lt;font style=&quot;font-size: 11px;&quot;&gt;&lt;b style=&quot;&quot;&gt;- Предыдущая вкладка&lt;/b&gt;&lt;/font&gt;" style="text;html=1;align=center;verticalAlign=middle;whiteSpace=wrap;rounded=0;" parent="1" vertex="1">
          <mxGeometry x="602.63" y="23.75" width="139.62" height="30" as="geometry" />
        </mxCell>
        <mxCell id="0v7TyIDGhViwFiE-gd_m-130" value="&lt;font style=&quot;font-size: 11px;&quot;&gt;&lt;b&gt;- Кнопка&lt;/b&gt;&lt;/font&gt;" style="text;html=1;align=center;verticalAlign=middle;whiteSpace=wrap;rounded=0;" parent="1" vertex="1">
          <mxGeometry x="573" y="53.75" width="120.75" height="30" as="geometry" />
        </mxCell>
        <mxCell id="0v7TyIDGhViwFiE-gd_m-131" value="&lt;font style=&quot;font-size: 11px;&quot;&gt;&lt;b&gt;- Список из доменов для выбора&lt;/b&gt;&lt;/font&gt;" style="text;html=1;align=center;verticalAlign=middle;whiteSpace=wrap;rounded=0;" parent="1" vertex="1">
          <mxGeometry x="600.75" y="93.75" width="199.25" height="30" as="geometry" />
        </mxCell>
        <mxCell id="0v7TyIDGhViwFiE-gd_m-132" value="&lt;font style=&quot;font-size: 11px;&quot;&gt;&lt;b&gt;- Переход на следующую вкладку&lt;/b&gt;&lt;/font&gt;" style="text;html=1;align=center;verticalAlign=middle;whiteSpace=wrap;rounded=0;" parent="1" vertex="1">
          <mxGeometry x="600.75" y="123.75" width="199.25" height="30" as="geometry" />
        </mxCell>
        <mxCell id="0v7TyIDGhViwFiE-gd_m-133" value="&lt;font style=&quot;font-size: 11px;&quot;&gt;&lt;b&gt;- Конечное действие&lt;/b&gt;&lt;/font&gt;" style="text;html=1;align=center;verticalAlign=middle;whiteSpace=wrap;rounded=0;" parent="1" vertex="1">
          <mxGeometry x="563.38" y="149.75" width="199.25" height="30" as="geometry" />
        </mxCell>
        <mxCell id="0v7TyIDGhViwFiE-gd_m-134" value="&lt;font style=&quot;font-size: 11px;&quot;&gt;&lt;b&gt;- Переход на прошлую вкладку&lt;/b&gt;&lt;/font&gt;" style="text;html=1;align=center;verticalAlign=middle;whiteSpace=wrap;rounded=0;" parent="1" vertex="1">
          <mxGeometry x="593.38" y="173.75" width="199.25" height="30" as="geometry" />
        </mxCell>
        <mxCell id="0v7TyIDGhViwFiE-gd_m-135" value="" style="rounded=0;whiteSpace=wrap;html=1;fillColor=none;" parent="1" vertex="1">
          <mxGeometry x="440.87" y="23.75" width="360" height="180" as="geometry" />
        </mxCell>
        <mxCell id="0v7TyIDGhViwFiE-gd_m-136" value="" style="rounded=0;whiteSpace=wrap;html=1;fillColor=none;" parent="1" vertex="1">
          <mxGeometry x="35.75" y="910" width="190" height="210" as="geometry" />
        </mxCell>
        <mxCell id="0v7TyIDGhViwFiE-gd_m-137" value="" style="rounded=0;whiteSpace=wrap;html=1;fillColor=none;" parent="1" vertex="1">
          <mxGeometry x="40.75" y="2400" width="180" height="170" as="geometry" />
        </mxCell>
        <mxCell id="0v7TyIDGhViwFiE-gd_m-138" value="" style="rounded=0;whiteSpace=wrap;html=1;strokeColor=default;fillColor=none;" parent="1" vertex="1">
          <mxGeometry x="30" y="52.5" width="140" height="127.5" as="geometry" />
        </mxCell>
        <mxCell id="0v7TyIDGhViwFiE-gd_m-139" value="" style="ellipse;whiteSpace=wrap;html=1;aspect=fixed;fillColor=#d5e8d4;strokeColor=#82b366;" parent="1" vertex="1">
          <mxGeometry x="453" y="157.25" width="15" height="15" as="geometry" />
        </mxCell>
        <mxCell id="0v7TyIDGhViwFiE-gd_m-140" value="" style="ellipse;whiteSpace=wrap;html=1;aspect=fixed;fillColor=#ffe6cc;strokeColor=#d79b00;" parent="1" vertex="1">
          <mxGeometry x="535" y="407.5" width="15" height="15" as="geometry" />
        </mxCell>
        <mxCell id="0v7TyIDGhViwFiE-gd_m-141" value="" style="ellipse;whiteSpace=wrap;html=1;aspect=fixed;fillColor=#ffe6cc;strokeColor=#d79b00;" parent="1" vertex="1">
          <mxGeometry x="453" y="181.25" width="15" height="15" as="geometry" />
        </mxCell>
        <mxCell id="0v7TyIDGhViwFiE-gd_m-142" value="" style="ellipse;whiteSpace=wrap;html=1;aspect=fixed;fillColor=#d5e8d4;strokeColor=#82b366;" parent="1" vertex="1">
          <mxGeometry x="171.62" y="265" width="15" height="15" as="geometry" />
        </mxCell>
        <mxCell id="0v7TyIDGhViwFiE-gd_m-143" value="" style="ellipse;whiteSpace=wrap;html=1;aspect=fixed;fillColor=#ffe6cc;strokeColor=#d79b00;" parent="1" vertex="1">
          <mxGeometry x="174.25" y="407.5" width="15" height="15" as="geometry" />
        </mxCell>
        <mxCell id="0v7TyIDGhViwFiE-gd_m-144" value="" style="ellipse;whiteSpace=wrap;html=1;aspect=fixed;fillColor=#d5e8d4;strokeColor=#82b366;" parent="1" vertex="1">
          <mxGeometry x="535" y="367.5" width="15" height="15" as="geometry" />
        </mxCell>
        <mxCell id="0v7TyIDGhViwFiE-gd_m-145" value="" style="ellipse;whiteSpace=wrap;html=1;aspect=fixed;fillColor=#d5e8d4;strokeColor=#82b366;" parent="1" vertex="1">
          <mxGeometry x="177.25" y="567.5" width="15" height="15" as="geometry" />
        </mxCell>
        <mxCell id="0v7TyIDGhViwFiE-gd_m-146" value="" style="ellipse;whiteSpace=wrap;html=1;aspect=fixed;fillColor=#d5e8d4;strokeColor=#82b366;" parent="1" vertex="1">
          <mxGeometry x="177.25" y="607.5" width="15" height="15" as="geometry" />
        </mxCell>
        <mxCell id="0v7TyIDGhViwFiE-gd_m-147" value="" style="ellipse;whiteSpace=wrap;html=1;aspect=fixed;fillColor=#d5e8d4;strokeColor=#82b366;" parent="1" vertex="1">
          <mxGeometry x="177.25" y="647" width="15" height="15" as="geometry" />
        </mxCell>
        <mxCell id="0v7TyIDGhViwFiE-gd_m-148" value="" style="ellipse;whiteSpace=wrap;html=1;aspect=fixed;fillColor=#d5e8d4;strokeColor=#82b366;" parent="1" vertex="1">
          <mxGeometry x="177.25" y="687.5" width="15" height="15" as="geometry" />
        </mxCell>
        <mxCell id="0v7TyIDGhViwFiE-gd_m-149" value="" style="ellipse;whiteSpace=wrap;html=1;aspect=fixed;fillColor=#d5e8d4;strokeColor=#82b366;" parent="1" vertex="1">
          <mxGeometry x="177.25" y="727.5" width="15" height="15" as="geometry" />
        </mxCell>
        <mxCell id="0v7TyIDGhViwFiE-gd_m-150" value="" style="ellipse;whiteSpace=wrap;html=1;aspect=fixed;fillColor=#d5e8d4;strokeColor=#82b366;" parent="1" vertex="1">
          <mxGeometry x="177.25" y="767.5" width="15" height="15" as="geometry" />
        </mxCell>
        <mxCell id="0v7TyIDGhViwFiE-gd_m-151" value="" style="ellipse;whiteSpace=wrap;html=1;aspect=fixed;fillColor=#ffe6cc;strokeColor=#d79b00;" parent="1" vertex="1">
          <mxGeometry x="175" y="807.5" width="15" height="15" as="geometry" />
        </mxCell>
        <mxCell id="0v7TyIDGhViwFiE-gd_m-152" value="" style="ellipse;whiteSpace=wrap;html=1;aspect=fixed;fillColor=#d5e8d4;strokeColor=#82b366;" parent="1" vertex="1">
          <mxGeometry x="378.5" y="527.5" width="15" height="15" as="geometry" />
        </mxCell>
        <mxCell id="0v7TyIDGhViwFiE-gd_m-153" value="" style="ellipse;whiteSpace=wrap;html=1;aspect=fixed;fillColor=#d5e8d4;strokeColor=#82b366;" parent="1" vertex="1">
          <mxGeometry x="378.5" y="567.5" width="15" height="15" as="geometry" />
        </mxCell>
        <mxCell id="0v7TyIDGhViwFiE-gd_m-154" value="" style="ellipse;whiteSpace=wrap;html=1;aspect=fixed;fillColor=#d5e8d4;strokeColor=#82b366;" parent="1" vertex="1">
          <mxGeometry x="378.5" y="607.5" width="15" height="15" as="geometry" />
        </mxCell>
        <mxCell id="0v7TyIDGhViwFiE-gd_m-155" value="" style="ellipse;whiteSpace=wrap;html=1;aspect=fixed;fillColor=#d5e8d4;strokeColor=#82b366;" parent="1" vertex="1">
          <mxGeometry x="378.5" y="647" width="15" height="15" as="geometry" />
        </mxCell>
        <mxCell id="0v7TyIDGhViwFiE-gd_m-156" value="" style="ellipse;whiteSpace=wrap;html=1;aspect=fixed;fillColor=#ffe6cc;strokeColor=#d79b00;" parent="1" vertex="1">
          <mxGeometry x="378.5" y="687.5" width="15" height="15" as="geometry" />
        </mxCell>
        <mxCell id="0v7TyIDGhViwFiE-gd_m-157" value="" style="ellipse;whiteSpace=wrap;html=1;aspect=fixed;fillColor=#d5e8d4;strokeColor=#82b366;" parent="1" vertex="1">
          <mxGeometry x="199.75" y="1050" width="15" height="15" as="geometry" />
        </mxCell>
        <mxCell id="0v7TyIDGhViwFiE-gd_m-158" value="" style="endArrow=classic;html=1;rounded=0;" parent="1" edge="1">
          <mxGeometry width="50" height="50" relative="1" as="geometry">
            <mxPoint x="237.25" y="934.8299999999999" as="sourcePoint" />
            <mxPoint x="267.25" y="934.6599999999999" as="targetPoint" />
          </mxGeometry>
        </mxCell>
        <mxCell id="0v7TyIDGhViwFiE-gd_m-159" value="" style="endArrow=classic;html=1;rounded=0;" parent="1" edge="1">
          <mxGeometry width="50" height="50" relative="1" as="geometry">
            <mxPoint x="237.25" y="974.8299999999999" as="sourcePoint" />
            <mxPoint x="267.25" y="974.6599999999999" as="targetPoint" />
          </mxGeometry>
        </mxCell>
        <mxCell id="0v7TyIDGhViwFiE-gd_m-160" value="" style="endArrow=classic;html=1;rounded=0;" parent="1" edge="1">
          <mxGeometry width="50" height="50" relative="1" as="geometry">
            <mxPoint x="236.5" y="1014.8299999999999" as="sourcePoint" />
            <mxPoint x="266.5" y="1014.6599999999999" as="targetPoint" />
          </mxGeometry>
        </mxCell>
        <mxCell id="0v7TyIDGhViwFiE-gd_m-161" value="" style="ellipse;whiteSpace=wrap;html=1;aspect=fixed;fillColor=#ffe6cc;strokeColor=#d79b00;" parent="1" vertex="1">
          <mxGeometry x="199.75" y="1087.5" width="15" height="15" as="geometry" />
        </mxCell>
        <mxCell id="0v7TyIDGhViwFiE-gd_m-162" value="" style="ellipse;whiteSpace=wrap;html=1;aspect=fixed;fillColor=#ffe6cc;strokeColor=#d79b00;" parent="1" vertex="1">
          <mxGeometry x="197.25" y="2537.5" width="15" height="15" as="geometry" />
        </mxCell>
        <mxCell id="0v7TyIDGhViwFiE-gd_m-163" value="Назад" style="rounded=0;whiteSpace=wrap;html=1;" parent="1" vertex="1">
          <mxGeometry x="281.5" y="2530" width="140" height="30" as="geometry" />
        </mxCell>
        <mxCell id="0v7TyIDGhViwFiE-gd_m-164" value="" style="rounded=0;whiteSpace=wrap;html=1;fillColor=none;" parent="1" vertex="1">
          <mxGeometry x="275.37" y="2400" width="177.5" height="170" as="geometry" />
        </mxCell>
        <mxCell id="0v7TyIDGhViwFiE-gd_m-165" value="" style="ellipse;whiteSpace=wrap;html=1;aspect=fixed;fillColor=#ffe6cc;strokeColor=#d79b00;" parent="1" vertex="1">
          <mxGeometry x="431.62" y="2537.5" width="15" height="15" as="geometry" />
        </mxCell>
        <mxCell id="0v7TyIDGhViwFiE-gd_m-166" value="" style="ellipse;whiteSpace=wrap;html=1;aspect=fixed;fillColor=#d5e8d4;strokeColor=#82b366;" parent="1" vertex="1">
          <mxGeometry x="431.62" y="2417.5" width="15" height="15" as="geometry" />
        </mxCell>
        <mxCell id="0v7TyIDGhViwFiE-gd_m-167" value="" style="ellipse;whiteSpace=wrap;html=1;aspect=fixed;fillColor=#d5e8d4;strokeColor=#82b366;" parent="1" vertex="1">
          <mxGeometry x="431.62" y="2457.5" width="15" height="15" as="geometry" />
        </mxCell>
        <mxCell id="0v7TyIDGhViwFiE-gd_m-168" value="" style="ellipse;whiteSpace=wrap;html=1;aspect=fixed;fillColor=#d5e8d4;strokeColor=#82b366;" parent="1" vertex="1">
          <mxGeometry x="431.62" y="2497.5" width="15" height="15" as="geometry" />
        </mxCell>
        <mxCell id="0v7TyIDGhViwFiE-gd_m-169" value="" style="ellipse;whiteSpace=wrap;html=1;aspect=fixed;fillColor=#d5e8d4;strokeColor=#82b366;" parent="1" vertex="1">
          <mxGeometry x="194" y="1216" width="15" height="15" as="geometry" />
        </mxCell>
        <mxCell id="0v7TyIDGhViwFiE-gd_m-170" value="" style="ellipse;whiteSpace=wrap;html=1;aspect=fixed;fillColor=#ffe6cc;strokeColor=#d79b00;" parent="1" vertex="1">
          <mxGeometry x="197.75" y="1297" width="15" height="15" as="geometry" />
        </mxCell>
        <mxCell id="0v7TyIDGhViwFiE-gd_m-171" value="" style="ellipse;whiteSpace=wrap;html=1;aspect=fixed;fillColor=#ffe6cc;strokeColor=#d79b00;" parent="1" vertex="1">
          <mxGeometry x="197.75" y="1337" width="15" height="15" as="geometry" />
        </mxCell>
        <mxCell id="0v7TyIDGhViwFiE-gd_m-172" value="" style="ellipse;whiteSpace=wrap;html=1;aspect=fixed;fillColor=#d5e8d4;strokeColor=#82b366;" parent="1" vertex="1">
          <mxGeometry x="646.5" y="1257" width="15" height="15" as="geometry" />
        </mxCell>
        <mxCell id="0v7TyIDGhViwFiE-gd_m-173" value="" style="ellipse;whiteSpace=wrap;html=1;aspect=fixed;fillColor=#d5e8d4;strokeColor=#82b366;" parent="1" vertex="1">
          <mxGeometry x="646.5" y="1297" width="15" height="15" as="geometry" />
        </mxCell>
        <mxCell id="0v7TyIDGhViwFiE-gd_m-174" value="" style="ellipse;whiteSpace=wrap;html=1;aspect=fixed;fillColor=#d5e8d4;strokeColor=#82b366;" parent="1" vertex="1">
          <mxGeometry x="646.5" y="1337" width="15" height="15" as="geometry" />
        </mxCell>
        <mxCell id="0v7TyIDGhViwFiE-gd_m-175" value="" style="ellipse;whiteSpace=wrap;html=1;aspect=fixed;fillColor=#d5e8d4;strokeColor=#82b366;" parent="1" vertex="1">
          <mxGeometry x="646.5" y="1377" width="15" height="15" as="geometry" />
        </mxCell>
        <mxCell id="0v7TyIDGhViwFiE-gd_m-176" value="" style="ellipse;whiteSpace=wrap;html=1;aspect=fixed;fillColor=#ffe6cc;strokeColor=#d79b00;" parent="1" vertex="1">
          <mxGeometry x="646.5" y="1457" width="15" height="15" as="geometry" />
        </mxCell>
        <mxCell id="0v7TyIDGhViwFiE-gd_m-177" value="" style="ellipse;whiteSpace=wrap;html=1;aspect=fixed;fillColor=#ffe6cc;strokeColor=#d79b00;" parent="1" vertex="1">
          <mxGeometry x="646.5" y="1497" width="15" height="15" as="geometry" />
        </mxCell>
        <mxCell id="0v7TyIDGhViwFiE-gd_m-178" value="" style="endArrow=classic;html=1;rounded=0;" parent="1" edge="1">
          <mxGeometry width="50" height="50" relative="1" as="geometry">
            <mxPoint x="681.99" y="1428.67" as="sourcePoint" />
            <mxPoint x="711.99" y="1428.5" as="targetPoint" />
          </mxGeometry>
        </mxCell>
        <mxCell id="0v7TyIDGhViwFiE-gd_m-179" value="" style="ellipse;whiteSpace=wrap;html=1;aspect=fixed;fillColor=#d5e8d4;strokeColor=#82b366;" parent="1" vertex="1">
          <mxGeometry x="196" y="1616.5" width="15" height="15" as="geometry" />
        </mxCell>
        <mxCell id="0v7TyIDGhViwFiE-gd_m-180" value="" style="ellipse;whiteSpace=wrap;html=1;aspect=fixed;fillColor=#ffe6cc;strokeColor=#d79b00;" parent="1" vertex="1">
          <mxGeometry x="196.75" y="1696.5" width="15" height="15" as="geometry" />
        </mxCell>
        <mxCell id="0v7TyIDGhViwFiE-gd_m-181" value="" style="ellipse;whiteSpace=wrap;html=1;aspect=fixed;fillColor=#ffe6cc;strokeColor=#d79b00;" parent="1" vertex="1">
          <mxGeometry x="196" y="1736.5" width="15" height="15" as="geometry" />
        </mxCell>
        <mxCell id="0v7TyIDGhViwFiE-gd_m-182" value="" style="ellipse;whiteSpace=wrap;html=1;aspect=fixed;fillColor=#ffe6cc;strokeColor=#d79b00;" parent="1" vertex="1">
          <mxGeometry x="415.5" y="1696.5" width="15" height="15" as="geometry" />
        </mxCell>
        <mxCell id="0v7TyIDGhViwFiE-gd_m-183" value="" style="ellipse;whiteSpace=wrap;html=1;aspect=fixed;fillColor=#d5e8d4;strokeColor=#82b366;" parent="1" vertex="1">
          <mxGeometry x="645.5" y="1656.5" width="15" height="15" as="geometry" />
        </mxCell>
        <mxCell id="0v7TyIDGhViwFiE-gd_m-184" value="" style="ellipse;whiteSpace=wrap;html=1;aspect=fixed;fillColor=#d5e8d4;strokeColor=#82b366;" parent="1" vertex="1">
          <mxGeometry x="645.5" y="1696.5" width="15" height="15" as="geometry" />
        </mxCell>
        <mxCell id="0v7TyIDGhViwFiE-gd_m-185" value="" style="ellipse;whiteSpace=wrap;html=1;aspect=fixed;fillColor=#d5e8d4;strokeColor=#82b366;" parent="1" vertex="1">
          <mxGeometry x="645.5" y="1736.5" width="15" height="15" as="geometry" />
        </mxCell>
        <mxCell id="0v7TyIDGhViwFiE-gd_m-186" value="" style="ellipse;whiteSpace=wrap;html=1;aspect=fixed;fillColor=#d5e8d4;strokeColor=#82b366;" parent="1" vertex="1">
          <mxGeometry x="645.5" y="1776.5" width="15" height="15" as="geometry" />
        </mxCell>
        <mxCell id="0v7TyIDGhViwFiE-gd_m-187" value="" style="ellipse;whiteSpace=wrap;html=1;aspect=fixed;fillColor=#ffe6cc;strokeColor=#d79b00;" parent="1" vertex="1">
          <mxGeometry x="645.5" y="1856.5" width="15" height="15" as="geometry" />
        </mxCell>
        <mxCell id="0v7TyIDGhViwFiE-gd_m-188" value="" style="ellipse;whiteSpace=wrap;html=1;aspect=fixed;fillColor=#ffe6cc;strokeColor=#d79b00;" parent="1" vertex="1">
          <mxGeometry x="645.5" y="1896.5" width="15" height="15" as="geometry" />
        </mxCell>
        <mxCell id="0v7TyIDGhViwFiE-gd_m-189" value="" style="endArrow=classic;html=1;rounded=0;" parent="1" edge="1">
          <mxGeometry width="50" height="50" relative="1" as="geometry">
            <mxPoint x="672.88" y="1823.83" as="sourcePoint" />
            <mxPoint x="702.88" y="1823.6599999999999" as="targetPoint" />
          </mxGeometry>
        </mxCell>
        <mxCell id="0v7TyIDGhViwFiE-gd_m-190" value="" style="ellipse;whiteSpace=wrap;html=1;aspect=fixed;fillColor=#d5e8d4;strokeColor=#82b366;" parent="1" vertex="1">
          <mxGeometry x="196.5" y="2010.5" width="15" height="15" as="geometry" />
        </mxCell>
        <mxCell id="0v7TyIDGhViwFiE-gd_m-191" value="" style="ellipse;whiteSpace=wrap;html=1;aspect=fixed;fillColor=#d5e8d4;strokeColor=#82b366;" parent="1" vertex="1">
          <mxGeometry x="196.25" y="2090.5" width="15" height="15" as="geometry" />
        </mxCell>
        <mxCell id="0v7TyIDGhViwFiE-gd_m-192" value="" style="ellipse;whiteSpace=wrap;html=1;aspect=fixed;fillColor=#d5e8d4;strokeColor=#82b366;" parent="1" vertex="1">
          <mxGeometry x="196.5" y="2130.5" width="15" height="15" as="geometry" />
        </mxCell>
        <mxCell id="0v7TyIDGhViwFiE-gd_m-193" value="" style="ellipse;whiteSpace=wrap;html=1;aspect=fixed;fillColor=#ffe6cc;strokeColor=#d79b00;" parent="1" vertex="1">
          <mxGeometry x="427.75" y="2088" width="15" height="15" as="geometry" />
        </mxCell>
        <mxCell id="0v7TyIDGhViwFiE-gd_m-194" value="" style="ellipse;whiteSpace=wrap;html=1;aspect=fixed;fillColor=#d5e8d4;strokeColor=#82b366;" parent="1" vertex="1">
          <mxGeometry x="658.88" y="2055.5" width="15" height="15" as="geometry" />
        </mxCell>
        <mxCell id="0v7TyIDGhViwFiE-gd_m-195" value="" style="ellipse;whiteSpace=wrap;html=1;aspect=fixed;fillColor=#d5e8d4;strokeColor=#82b366;" parent="1" vertex="1">
          <mxGeometry x="658.88" y="2095.5" width="15" height="15" as="geometry" />
        </mxCell>
        <mxCell id="0v7TyIDGhViwFiE-gd_m-196" value="" style="ellipse;whiteSpace=wrap;html=1;aspect=fixed;fillColor=#d5e8d4;strokeColor=#82b366;" parent="1" vertex="1">
          <mxGeometry x="658.88" y="2135.5" width="15" height="15" as="geometry" />
        </mxCell>
        <mxCell id="0v7TyIDGhViwFiE-gd_m-197" value="" style="ellipse;whiteSpace=wrap;html=1;aspect=fixed;fillColor=#d5e8d4;strokeColor=#82b366;" parent="1" vertex="1">
          <mxGeometry x="658.88" y="2175.5" width="15" height="15" as="geometry" />
        </mxCell>
        <mxCell id="0v7TyIDGhViwFiE-gd_m-198" value="" style="ellipse;whiteSpace=wrap;html=1;aspect=fixed;fillColor=#d5e8d4;strokeColor=#82b366;" parent="1" vertex="1">
          <mxGeometry x="658.88" y="2215.5" width="15" height="15" as="geometry" />
        </mxCell>
        <mxCell id="0v7TyIDGhViwFiE-gd_m-199" value="" style="ellipse;whiteSpace=wrap;html=1;aspect=fixed;fillColor=#ffe6cc;strokeColor=#d79b00;" parent="1" vertex="1">
          <mxGeometry x="658.88" y="2255.5" width="15" height="15" as="geometry" />
        </mxCell>
        <mxCell id="0v7TyIDGhViwFiE-gd_m-200" value="" style="ellipse;whiteSpace=wrap;html=1;aspect=fixed;fillColor=#ffe6cc;strokeColor=#d79b00;" parent="1" vertex="1">
          <mxGeometry x="658.88" y="2295.5" width="15" height="15" as="geometry" />
        </mxCell>
        <mxCell id="0v7TyIDGhViwFiE-gd_m-201" value="" style="ellipse;whiteSpace=wrap;html=1;aspect=fixed;fillColor=#d5e8d4;strokeColor=#82b366;" parent="1" vertex="1">
          <mxGeometry x="602.25" y="2795" width="15" height="15" as="geometry" />
        </mxCell>
        <mxCell id="0v7TyIDGhViwFiE-gd_m-202" value="&lt;u&gt;&lt;font style=&quot;color: rgb(59, 38, 255);&quot;&gt;Экспорт тренировок:&lt;/font&gt;&lt;/u&gt;" style="text;html=1;align=center;verticalAlign=middle;resizable=0;points=[];autosize=1;strokeColor=none;fillColor=none;" parent="1" vertex="1">
          <mxGeometry x="37.25" y="2620" width="140" height="30" as="geometry" />
        </mxCell>
        <mxCell id="0v7TyIDGhViwFiE-gd_m-203" value="Назад" style="rounded=0;whiteSpace=wrap;html=1;" parent="1" vertex="1">
          <mxGeometry x="54.25" y="2730" width="140" height="30" as="geometry" />
        </mxCell>
        <mxCell id="0v7TyIDGhViwFiE-gd_m-204" value="Экспорт тренировок в Excel" style="rounded=0;whiteSpace=wrap;html=1;" parent="1" vertex="1">
          <mxGeometry x="52.379999999999995" y="2650" width="140" height="30" as="geometry" />
        </mxCell>
        <mxCell id="0v7TyIDGhViwFiE-gd_m-205" value="Экспорт тренировок в JSON" style="rounded=0;whiteSpace=wrap;html=1;" parent="1" vertex="1">
          <mxGeometry x="52.379999999999995" y="2690" width="140" height="30" as="geometry" />
        </mxCell>
        <mxCell id="0v7TyIDGhViwFiE-gd_m-206" value="" style="rounded=0;whiteSpace=wrap;html=1;fillColor=none;" parent="1" vertex="1">
          <mxGeometry x="30" y="2610" width="456.5" height="300" as="geometry" />
        </mxCell>
        <mxCell id="0v7TyIDGhViwFiE-gd_m-207" value="" style="rounded=0;whiteSpace=wrap;html=1;fillColor=none;" parent="1" vertex="1">
          <mxGeometry x="286.5" y="2650" width="190" height="250" as="geometry" />
        </mxCell>
        <mxCell id="0v7TyIDGhViwFiE-gd_m-208" value="" style="endArrow=classic;html=1;rounded=0;" parent="1" edge="1">
          <mxGeometry width="50" height="50" relative="1" as="geometry">
            <mxPoint x="246.63" y="2664.83" as="sourcePoint" />
            <mxPoint x="276.63" y="2664.66" as="targetPoint" />
          </mxGeometry>
        </mxCell>
        <mxCell id="0v7TyIDGhViwFiE-gd_m-209" value="" style="endArrow=classic;html=1;rounded=0;" parent="1" edge="1">
          <mxGeometry width="50" height="50" relative="1" as="geometry">
            <mxPoint x="246.63" y="2704.83" as="sourcePoint" />
            <mxPoint x="276.63" y="2704.66" as="targetPoint" />
          </mxGeometry>
        </mxCell>
        <mxCell id="0v7TyIDGhViwFiE-gd_m-210" value="" style="ellipse;whiteSpace=wrap;html=1;aspect=fixed;fillColor=#ffe6cc;strokeColor=#d79b00;" parent="1" vertex="1">
          <mxGeometry x="207.25" y="2737.5" width="15" height="15" as="geometry" />
        </mxCell>
        <mxCell id="0v7TyIDGhViwFiE-gd_m-211" value="Назад" style="rounded=0;whiteSpace=wrap;html=1;" parent="1" vertex="1">
          <mxGeometry x="303.38" y="2860" width="140" height="30" as="geometry" />
        </mxCell>
        <mxCell id="0v7TyIDGhViwFiE-gd_m-212" value="Месяц" style="rounded=0;whiteSpace=wrap;html=1;" parent="1" vertex="1">
          <mxGeometry x="304" y="2660" width="140" height="30" as="geometry" />
        </mxCell>
        <mxCell id="0v7TyIDGhViwFiE-gd_m-213" value="Квартал" style="rounded=0;whiteSpace=wrap;html=1;" parent="1" vertex="1">
          <mxGeometry x="304" y="2700" width="140" height="30" as="geometry" />
        </mxCell>
        <mxCell id="0v7TyIDGhViwFiE-gd_m-214" value="" style="ellipse;whiteSpace=wrap;html=1;aspect=fixed;fillColor=#ffe6cc;strokeColor=#d79b00;" parent="1" vertex="1">
          <mxGeometry x="456.38" y="2867.5" width="15" height="15" as="geometry" />
        </mxCell>
        <mxCell id="0v7TyIDGhViwFiE-gd_m-215" value="Полгода" style="rounded=0;whiteSpace=wrap;html=1;" parent="1" vertex="1">
          <mxGeometry x="304" y="2740" width="140" height="30" as="geometry" />
        </mxCell>
        <mxCell id="0v7TyIDGhViwFiE-gd_m-216" value="Год" style="rounded=0;whiteSpace=wrap;html=1;" parent="1" vertex="1">
          <mxGeometry x="303.38" y="2780" width="140" height="30" as="geometry" />
        </mxCell>
        <mxCell id="0v7TyIDGhViwFiE-gd_m-217" value="За всё время" style="rounded=0;whiteSpace=wrap;html=1;" parent="1" vertex="1">
          <mxGeometry x="303.38" y="2820" width="140" height="30" as="geometry" />
        </mxCell>
        <mxCell id="0v7TyIDGhViwFiE-gd_m-218" value="" style="ellipse;whiteSpace=wrap;html=1;aspect=fixed;fillColor=#d5e8d4;strokeColor=#82b366;" parent="1" vertex="1">
          <mxGeometry x="456.38" y="2827.5" width="15" height="15" as="geometry" />
        </mxCell>
        <mxCell id="0v7TyIDGhViwFiE-gd_m-219" value="" style="ellipse;whiteSpace=wrap;html=1;aspect=fixed;fillColor=#d5e8d4;strokeColor=#82b366;" parent="1" vertex="1">
          <mxGeometry x="456.38" y="2787.5" width="15" height="15" as="geometry" />
        </mxCell>
        <mxCell id="0v7TyIDGhViwFiE-gd_m-220" value="" style="ellipse;whiteSpace=wrap;html=1;aspect=fixed;fillColor=#d5e8d4;strokeColor=#82b366;" parent="1" vertex="1">
          <mxGeometry x="456.38" y="2747.5" width="15" height="15" as="geometry" />
        </mxCell>
        <mxCell id="0v7TyIDGhViwFiE-gd_m-221" value="" style="ellipse;whiteSpace=wrap;html=1;aspect=fixed;fillColor=#d5e8d4;strokeColor=#82b366;" parent="1" vertex="1">
          <mxGeometry x="456.38" y="2707.5" width="15" height="15" as="geometry" />
        </mxCell>
        <mxCell id="0v7TyIDGhViwFiE-gd_m-222" value="" style="ellipse;whiteSpace=wrap;html=1;aspect=fixed;fillColor=#d5e8d4;strokeColor=#82b366;" parent="1" vertex="1">
          <mxGeometry x="456.38" y="2667.5" width="15" height="15" as="geometry" />
        </mxCell>
        <mxCell id="0v7TyIDGhViwFiE-gd_m-223" value="&lt;u&gt;&lt;font style=&quot;color: rgb(59, 38, 255);&quot;&gt;Экспорт тренировок в Excel/JSON:&lt;/font&gt;&lt;/u&gt;" style="text;html=1;align=center;verticalAlign=middle;resizable=0;points=[];autosize=1;strokeColor=none;fillColor=none;" parent="1" vertex="1">
          <mxGeometry x="275.5" y="2620" width="220" height="30" as="geometry" />
        </mxCell>
        <mxCell id="0v7TyIDGhViwFiE-gd_m-224" value="" style="rounded=0;whiteSpace=wrap;html=1;fillColor=none;" parent="1" vertex="1">
          <mxGeometry x="38.75" y="2620" width="188.5" height="150" as="geometry" />
        </mxCell>
        <mxCell id="0v7TyIDGhViwFiE-gd_m-225" value="" style="ellipse;whiteSpace=wrap;html=1;aspect=fixed;fillColor=#ffe6cc;strokeColor=#d79b00;" parent="1" vertex="1">
          <mxGeometry x="631.5" y="2795" width="15" height="15" as="geometry" />
        </mxCell>
        <mxCell id="0v7TyIDGhViwFiE-gd_m-226" value="" style="endArrow=classic;html=1;rounded=0;" parent="1" edge="1">
          <mxGeometry width="50" height="50" relative="1" as="geometry">
            <mxPoint x="185" y="74.80000000000007" as="sourcePoint" />
            <mxPoint x="215" y="74.63" as="targetPoint" />
          </mxGeometry>
        </mxCell>
        <mxCell id="0v7TyIDGhViwFiE-gd_m-227" value="" style="endArrow=classic;html=1;rounded=0;" parent="1" edge="1">
          <mxGeometry width="50" height="50" relative="1" as="geometry">
            <mxPoint x="185" y="114.80000000000007" as="sourcePoint" />
            <mxPoint x="215" y="114.63" as="targetPoint" />
          </mxGeometry>
        </mxCell>
        <mxCell id="0v7TyIDGhViwFiE-gd_m-228" value="" style="endArrow=classic;html=1;rounded=0;" parent="1" edge="1">
          <mxGeometry width="50" height="50" relative="1" as="geometry">
            <mxPoint x="183" y="152.67000000000007" as="sourcePoint" />
            <mxPoint x="213" y="152.5" as="targetPoint" />
          </mxGeometry>
        </mxCell>
        <mxCell id="hOGTWsFBgoavCi1V1URX-2" value="Найти тренировку по дате" style="rounded=0;whiteSpace=wrap;html=1;" vertex="1" parent="1">
          <mxGeometry x="41.62" y="300" width="120.75" height="30" as="geometry" />
        </mxCell>
        <mxCell id="hOGTWsFBgoavCi1V1URX-3" value="" style="ellipse;whiteSpace=wrap;html=1;aspect=fixed;fillColor=#d5e8d4;strokeColor=#82b366;" vertex="1" parent="1">
          <mxGeometry x="172.37" y="305" width="15" height="15" as="geometry" />
        </mxCell>
        <mxCell id="hOGTWsFBgoavCi1V1URX-4" value="Найти тренировку по дате" style="rounded=0;whiteSpace=wrap;html=1;" vertex="1" parent="1">
          <mxGeometry x="334.25" y="320" width="120.75" height="30" as="geometry" />
        </mxCell>
        <mxCell id="hOGTWsFBgoavCi1V1URX-5" value="" style="ellipse;whiteSpace=wrap;html=1;aspect=fixed;fillColor=#d5e8d4;strokeColor=#82b366;" vertex="1" parent="1">
          <mxGeometry x="535" y="327.5" width="15" height="15" as="geometry" />
        </mxCell>
      </root>
    </mxGraphModel>
  </diagram>
</mxfile>
